HIERARCHY
ROOT Hips
{
	OFFSET 0.00000 0.00000 0.00000
	CHANNELS 6 Xposition Yposition Zposition Yrotation Zrotation Xrotation 
	JOINT Lumbar
	{
		OFFSET 0 0 0
		CHANNELS 3 Zrotation Xrotation Yrotation
		JOINT Neck
		{
			OFFSET 0.00 0.2701 0.00
			CHANNELS 3 Zrotation Xrotation Yrotation
			End Site
			{
				OFFSET 0.00 0.1379 0.00
			}
		}
		JOINT RightShoulder
		{
			OFFSET 0.0119 0.2289 0.1181
			CHANNELS 3 Zrotation Xrotation Yrotation
			JOINT RightElbow
			{
				OFFSET 0.00 -0.1475 0.00
				CHANNELS 2 Zrotation Yrotation
				JOINT RightWrist
				{
					OFFSET 0.00 -0.1605 0.00
					CHANNELS 2 Zrotation Xrotation
					End Site
					{
						OFFSET 0.0040 -0.1068 0.0006
					}
				}
			}
		}
		JOINT LeftShoulder
		{
			OFFSET 0.0119 0.2289 -0.1181
			CHANNELS 3 Zrotation Xrotation Yrotation
			JOINT LeftElbow
			{
				OFFSET 0.00 -0.1475 0.00
				CHANNELS 2 Zrotation Yrotation
				JOINT LeftWrist
				{
					OFFSET 0.00 -0.1605 0.00
					CHANNELS 2 Zrotation Xrotation
					End Site
					{
						OFFSET 0.0040 -0.1068 -0.0006
					}
				}
			}
		}
	}
	JOINT RightHip
	{
		OFFSET 0.0316 -0.0424 0.0458
		CHANNELS 3 Zrotation Xrotation Yrotation
		JOINT RightKnee
		{
			OFFSET 0.00 -0.2438 0.00
			CHANNELS 1 Zrotation
			JOINT RightAnkle
			{
				OFFSET 0.00 -0.2449 0.00
				CHANNELS 3 Zrotation Xrotation Yrotation
				End Site
				{
					OFFSET 0.1237 -0.0542 0.0051
				}
			}
		}
	}
	JOINT LeftHip
	{
		OFFSET 0.0316 -0.0424 -0.0458
		CHANNELS 3 Zrotation Xrotation Yrotation
		JOINT LeftKnee
		{
			OFFSET 0.00 -0.2438 0.00
			CHANNELS 1 Zrotation
			JOINT LeftAnkle
			{
				OFFSET 0.00 -0.2449 0.00
				CHANNELS 3 Zrotation Xrotation Yrotation
				End Site
				{
					OFFSET 0.1237 -0.0542 -0.0051
				}
			}
		}
	}
}
MOTION
Frames: 24
Frame Time: 0.02
-0.21554 -0.04045 0.06156 24.80949 -36.63756 -8.68444 52.25061 0.92387 -4.8604 -7.11784 -2.12497 -2.11992 166.38669 -19.99439 -87.14684 128.93324 58.02293 -75.22911 -21.88468 166.38691 85.80528 87.14685 92.30958 -52.65665 -75.22914 21.885 47.9271 -3.48721 -13.18863 -23.14189 -6.64983 -1.72075 -3.07273 58.56361 2.0344 12.12819 -26.10287 -7.06978 1.99797 3.23431
-0.21626 -0.04065 0.0614 24.73146 -36.5919 -8.73582 52.15718 0.83922 -4.87722 -7.37784 -1.93787 -2.11992 166.38669 -19.86347 -87.14684 129.21541 58.05746 -75.22911 -21.88467 166.38691 86.0642 87.14685 92.3332 -52.72362 -75.22914 21.88499 48.02072 -3.47136 -13.05085 -23.2366 -6.64901 -1.73519 -3.08102 58.57363 2.02868 12.13642 -26.11477 -7.06134 2.00429 3.23701
-0.217 -0.04088 0.06127 24.67531 -36.54208 -8.76952 52.04763 0.73787 -4.92167 -7.64462 -1.74991 -2.11993 166.38665 -19.72315 -87.14683 129.48586 58.08716 -75.2291 -21.88467 166.38691 86.35019 87.14685 92.35095 -52.78492 -75.22914 21.88499 48.13253 -3.43761 -12.75052 -23.35899 -6.6465 -1.76771 -3.09881 58.58137 2.01119 12.14993 -26.13318 -7.05262 2.00935 3.23889
-0.21773 -0.04109 0.06113 24.60951 -36.49463 -8.81113 51.94293 0.64567 -4.95885 -7.90202 -1.5672 -2.11993 166.38676 -19.58408 -87.14685 129.75737 58.11789 -75.22913 -21.88468 166.38691 86.62527 87.14685 92.3692 -52.84557 -75.22914 21.88499 48.2396 -3.41528 -12.53235 -23.47456 -6.64514 -1.79091 -3.11166 58.59021 1.99984 12.16426 -26.14757 -7.0443 2.01451 3.24092
-0.21846 -0.04131 0.06097 24.54195 -36.44511 -8.85306 51.84778 0.54666 -4.97337 -8.18644 -1.36333 -2.11993 166.38662 -19.45739 -87.14682 130.04905 58.15418 -75.22909 -21.88466 166.38691 86.89706 87.14684 92.39678 -52.92136 -75.22914 21.88495 48.33179 -3.37989 -12.28283 -23.56519 -6.64218 -1.81842 -3.12694 58.59913 1.98514 12.16545 -26.16649 -7.03478 2.02163 3.24388
-0.2192 -0.04151 0.06085 24.48382 -36.3988 -8.89021 51.72945 0.45792 -5.04183 -8.41626 -1.20362 -2.11993 166.38663 -19.30296 -87.14682 130.29484 58.17736 -75.22909 -21.88466 166.38691 87.1804 87.14685 92.4034 -52.96405 -75.22914 21.885 48.45944 -3.36712 -12.05853 -23.71538 -6.64213 -1.8414 -3.1395 58.60697 1.97455 12.19482 -26.17745 -7.02772 2.0244 3.24472
-0.22002 -0.04162 0.06083 24.44214 -36.36413 -8.91854 51.54871 0.40193 -5.25188 -8.49069 -1.16571 -2.11993 166.38711 -19.07269 -87.14694 130.41994 58.16683 -75.22923 -21.88474 166.38691 87.4981 87.14685 92.35414 -52.91243 -75.22917 21.88525 48.6785 -3.42145 -11.9449 -24.01317 -6.65083 -1.84709 -3.14204 58.61553 1.97903 12.30394 -26.16554 -7.02751 2.01533 3.23979
-0.22085 -0.04169 0.06084 24.41015 -36.33258 -8.9427 51.34581 0.35679 -5.5154 -8.51036 -1.17243 -2.11993 166.38574 -18.81524 -87.14661 130.49834 58.14276 -75.22883 -21.88453 166.38692 87.82454 87.14686 92.28383 -52.82833 -75.22921 21.88559 48.93281 -3.49904 -11.86178 -24.37153 -6.66245 -1.84767 -3.14157 58.62252 1.98788 12.44064 -26.1453 -7.02981 2.00194 3.23278
-0.22167 -0.04178 0.06083 24.37631 -36.29841 -8.96879 51.15456 0.30652 -5.75489 -8.55697 -1.15905 -2.11993 166.38772 -18.5712 -87.14708 130.59589 58.12418 -75.22942 -21.88483 166.38692 88.14076 87.14686 92.22281 -52.76149 -75.22924 21.88588 49.17253 -3.56568 -11.76303 -24.70907 -6.67255 -1.85087 -3.14263 58.62814 1.99419 12.56255 -26.12842 -7.031 1.99065 3.22683
-0.22253 -0.04188 0.06082 24.33183 -36.269 -8.99415 50.95572 0.25658 -5.99422 -8.59525 -1.1449 -2.11993 166.3873 -18.32205 -87.14698 130.70211 58.10905 -75.22929 -21.88477 166.38693 88.48434 87.14687 92.1629 -52.68348 -75.22927 21.8862 49.40758 -3.63319 -11.66502 -25.02034 -6.68342 -1.85351 -3.14334 58.64237 2.00251 12.69406 -26.11346 -7.03206 1.97878 3.22042
-0.22331 -0.04195 0.06084 24.3123 -36.23071 -9.0202 50.76807 0.20866 -6.24618 -8.63765 -1.14293 -2.11993 166.38114 -18.07757 -87.14553 130.77894 58.08259 -75.22747 -21.88385 166.38693 88.77265 87.14687 92.09559 -52.62166 -75.2293 21.88647 49.6596 -3.70477 -11.5762 -25.39903 -6.69338 -1.85581 -3.14391 58.63847 2.00774 12.81219 -26.09254 -7.03398 1.96705 3.21443
-0.22388 -0.04195 0.06091 24.35239 -36.16499 -9.05 50.61327 0.16479 -6.5199 -8.70589 -1.16375 -2.11993 166.39957 -17.85676 -87.14989 130.78543 58.03305 -75.23294 -21.8866 166.38694 88.90612 87.14687 92.01462 -52.60745 -75.22931 21.88659 49.95723 -3.7807 -11.49394 -25.95954 -6.70041 -1.85879 -3.145 58.58373 2.00434 12.88484 -26.05651 -7.03787 1.9575 3.2105
-0.22437 -0.04192 0.06101 24.41831 -36.09066 -9.08058 50.47128 0.12252 -6.80413 -8.77987 -1.19524 -2.11993 166.37151 -17.64584 -87.14325 130.76137 57.96928 -75.22461 -21.88242 166.38694 88.98356 87.14687 91.92679 -52.61156 -75.22932 21.88665 50.26905 -3.86007 -11.42258 -26.58328 -6.70638 -1.86148 -3.14597 58.51106 1.99753 12.94293 -26.01487 -7.04253 1.94816 3.20702
-0.22489 -0.0419 0.0611 24.47701 -36.02169 -9.11033 50.32567 0.0788 -7.08366 -8.85058 -1.22182 -2.11993 166.38085 -17.42143 -87.14547 130.75523 57.91191 -75.22739 -21.88382 166.38694 89.08659 87.14688 91.84086 -52.61072 -75.22933 21.88673 50.56972 -3.93898 -11.35479 -27.17158 -6.71265 -1.86395 -3.14681 58.44735 1.99175 13.00936 -25.9762 -7.0467 1.93817 3.20304
-0.22545 -0.04187 0.06119 24.51754 -35.94668 -9.14185 50.16968 0.03825 -7.36559 -8.92246 -1.25034 -2.11994 166.45824 -17.21365 -87.16376 130.74167 57.86427 -75.25034 -21.89535 166.38694 89.18941 87.14688 91.75873 -52.59478 -75.22934 21.88682 50.89236 -4.01479 -11.25292 -27.79206 -6.71978 -1.86766 -3.1483 58.38008 1.98844 13.07129 -25.93544 -7.05151 1.93016 3.20012
-0.22591 -0.04186 0.06128 24.60121 -35.88219 -9.17003 50.03901 -0.00836 -7.64326 -8.99363 -1.27663 -2.11994 166.2113 -16.99953 -87.10534 130.72281 57.78071 -75.17709 -21.85857 166.38694 89.27923 87.14688 91.66807 -52.61468 -75.22935 21.88688 51.17107 -4.09664 -11.22304 -28.35756 -6.72484 -1.86891 -3.14851 58.31607 1.97897 13.13649 -25.89785 -7.05516 1.9184 3.19525
-0.22612 -0.04191 0.06137 24.80346 -35.84863 -9.18808 49.97243 -0.07458 -7.91511 -9.06444 -1.2951 -2.11994 166.60532 -16.53909 -87.19865 130.82225 57.71221 -75.29403 -21.91727 166.38694 89.34678 87.14688 91.54945 -52.73255 -75.22935 21.88689 51.3339 -4.20215 -11.39983 -28.77387 -6.72433 -1.86215 -3.14448 58.26479 1.95472 13.23413 -25.87023 -7.05522 1.8939 3.18378
-0.22623 -0.04197 0.06145 25.04697 -35.82601 -9.2029 49.93157 -0.14652 -8.18026 -9.13396 -1.31053 -2.11994 166.43 -16.10907 -87.15695 130.89743 57.59043 -75.24187 -21.89114 166.38694 89.4031 87.14688 91.42374 -52.88531 -75.22935 21.88689 51.45019 -4.31207 -11.64662 -29.1289 -6.72179 -1.85316 -3.13929 58.21758 1.9242 13.33205 -25.84609 -7.05411 1.86604 3.17054
-0.22638 -0.04201 0.06153 25.26792 -35.79847 -9.2197 49.88079 -0.21425 -8.44282 -9.20245 -1.32657 -2.11994 165.46404 -15.82044 -86.92871 130.89761 57.41665 -74.95555 -21.7473 166.38694 89.46462 87.14688 91.30538 -53.02007 -75.22935 21.88689 51.58178 -4.41468 -11.85423 -29.49994 -6.72024 -1.8461 -3.13514 58.16891 1.89548 13.41621 -25.82049 -7.05365 1.84129 3.15886
-0.22656 -0.04209 0.06162 25.50639 -35.77027 -9.23439 49.82278 -0.28875 -8.73028 -9.27824 -1.34639 -2.11994 168.76154 -14.89853 -87.70889 131.2467 57.55179 -75.9337 -22.23846 166.38694 89.524 87.14688 91.16929 -53.16478 -75.22935 21.88689 51.73857 -4.5397 -12.09315 -29.92356 -6.71837 -1.8353 -3.12889 58.11783 1.87065 13.55602 -25.79407 -7.05272 1.80996 3.14402
-0.22666 -0.04211 0.06169 25.71716 -35.74631 -9.25268 49.78598 -0.35047 -8.96328 -9.33808 -1.3573 -2.11994 163.25155 -15.27553 -86.40414 130.88023 57.04649 -74.29849 -21.41766 166.38694 89.58565 87.14688 91.06858 -53.29645 -75.22935 21.88688 51.83166 -4.61921 -12.28357 -30.22186 -6.7167 -1.83159 -3.12664 58.07314 1.8368 13.58195 -25.77037 -7.05247 1.79143 3.13529
-0.22657 -0.04202 0.06171 25.84713 -35.73002 -9.28181 49.79964 -0.37594 -9.05449 -9.35737 -1.3458 -2.11994 131.76559 -19.46776 -78.96514 128.40095 54.65191 -64.96587 -16.72899 166.38694 89.65883 87.14688 91.06684 -53.38656 -75.22934 21.88681 51.75984 -4.57031 -12.32102 -30.19211 -6.71609 -1.84943 -3.13651 58.04367 1.77494 13.27801 -25.75262 -7.0546 1.81 3.1444
-0.2264 -0.04189 0.0617 25.94661 -35.71791 -9.3146 49.83404 -0.38827 -9.08971 -9.36008 -1.32514 -2.11994 91.76308 -24.92302 -69.50749 125.22857 51.63913 -53.10432 -10.77145 166.38694 89.73453 87.14688 91.10097 -53.4617 -75.22933 21.88672 51.62549 -4.47577 -12.30764 -30.03741 -6.71576 -1.87419 -3.15029 58.02086 1.70507 12.86244 -25.73769 -7.05742 1.84138 3.15962
-0.22627 -0.04178 0.06171 26.05613 -35.7048 -9.3457 49.86002 -0.40629 -9.14604 -9.36825 -1.30765 -2.11994 56.84686 -29.644 -61.2452 122.46818 48.9979 -42.74618 -5.57067 166.38694 89.80767 87.14687 91.11915 -53.54168 -75.22932 21.88664 51.52 -4.40318 -12.31861 -29.93766 -6.7153 -1.89483 -3.16175 57.99604 1.64193 12.50803 -25.72195 -7.0598 1.86627 3.1717
